<?xml version="1.0" encoding="UTF-8"?>
<svg xmlns="http://www.w3.org/2000/svg" xmlns:xlink="http://www.w3.org/1999/xlink" width="24" height="24" viewBox="0 0 24 24" version="1.1">
<g id="surface1">
<path style=" stroke:none;fill-rule:nonzero;fill:rgb(43.137255%,60.392157%,74.117647%);fill-opacity:1;" d="M 17.625 17.625 L 1.5 17.625 L 4.132812 12.359375 L 5.605469 9.410156 L 8.25 4.125 L 10.976562 8.050781 L 12.792969 10.660156 Z M 17.625 17.625 "/>
<path style=" stroke:none;fill-rule:nonzero;fill:rgb(29.019608%,50.980392%,69.019608%);fill-opacity:1;" d="M 12.792969 10.660156 L 11.25 13.125 C 11.25 13.125 8.71875 14.34375 7.875 14.625 C 7.03125 14.90625 4.875 14.625 4.875 14.625 L 4.5 13.5 C 4.417969 13.230469 4.289062 12.976562 4.125 12.75 C 4.082031 12.703125 4.089844 12.5625 4.125 12.375 L 5.625 9.410156 L 7.875 12 L 10.976562 8.050781 Z M 12.792969 10.660156 "/>
<path style="fill:none;stroke-width:2;stroke-linecap:round;stroke-linejoin:round;stroke:rgb(0%,10.980392%,38.823529%);stroke-opacity:1;stroke-miterlimit:4;" d="M 4 47 L 22 11 L 47 47 Z M 4 47 " transform="matrix(0.375,0,0,0.375,0,0)"/>
<path style="fill-rule:nonzero;fill:rgb(70.980392%,81.176471%,89.019608%);fill-opacity:1;stroke-width:2;stroke-linecap:round;stroke-linejoin:round;stroke:rgb(0%,10.980392%,38.823529%);stroke-opacity:1;stroke-miterlimit:4;" d="M 33 47 L 51 24 L 61 52 Z M 33 47 " transform="matrix(0.375,0,0,0.375,0,0)"/>
<path style=" stroke:none;fill-rule:nonzero;fill:rgb(36.862745%,52.941176%,65.882353%);fill-opacity:1;" d="M 22.875 19.5 L 6.589844 17.886719 L 3.953125 17.625 L 7.398438 13.667969 L 8.714844 12.15625 L 13.414062 6.765625 L 18.363281 13.429688 Z M 22.875 19.5 "/>
<path style=" stroke:none;fill-rule:nonzero;fill:rgb(30.196078%,43.529412%,54.117647%);fill-opacity:1;" d="M 22.875 19.5 L 6.589844 17.886719 C 6.433594 17.3125 6.359375 16.71875 6.375 16.125 L 7.398438 13.667969 L 8.25 11.625 L 10.875 14.625 L 12.375 13.125 L 15 15.375 L 18 13.125 L 18.375 13.429688 Z M 22.875 19.5 "/>
<path style="fill:none;stroke-width:2;stroke-linecap:round;stroke-linejoin:round;stroke:rgb(0%,10.980392%,38.823529%);stroke-opacity:1;stroke-miterlimit:4;" d="M 10.541667 47 L 35.770833 18.041667 L 61 52 Z M 10.541667 47 " transform="matrix(0.375,0,0,0.375,0,0)"/>
<path style="fill-rule:nonzero;fill:rgb(64.705882%,82.352941%,94.901961%);fill-opacity:1;stroke-width:2;stroke-linecap:round;stroke-linejoin:round;stroke:rgb(0%,10.980392%,38.823529%);stroke-opacity:1;stroke-miterlimit:4;" d="M 8.645833 23 L 35 52 L 3 52 Z M 8.645833 23 " transform="matrix(0.375,0,0,0.375,0,0)"/>
<path style="fill-rule:nonzero;fill:rgb(49.411765%,75.294118%,94.901961%);fill-opacity:1;stroke-width:2;stroke-linecap:round;stroke-linejoin:round;stroke:rgb(0%,10.980392%,38.823529%);stroke-opacity:1;stroke-miterlimit:4;" d="M 3 52 L 14.291667 39.041667 L 25.583333 52 Z M 3 52 " transform="matrix(0.375,0,0,0.375,0,0)"/>
<path style="fill-rule:nonzero;fill:rgb(49.411765%,75.294118%,94.901961%);fill-opacity:1;stroke-width:2;stroke-linecap:round;stroke-linejoin:round;stroke:rgb(0%,10.980392%,38.823529%);stroke-opacity:1;stroke-miterlimit:4;" d="M 42.90625 36.041667 L 36.583333 43.291667 L 32.875 39.041667 L 21.583333 52 L 61 52 Z M 42.90625 36.041667 " transform="matrix(0.375,0,0,0.375,0,0)"/>
<path style="fill-rule:nonzero;fill:rgb(96.862745%,85.882353%,36.862745%);fill-opacity:1;stroke-width:2;stroke-linecap:round;stroke-linejoin:round;stroke:rgb(0%,10.980392%,38.823529%);stroke-opacity:1;stroke-miterlimit:4;" d="M 56 12.5 C 56 16.09375 53.09375 19 49.5 19 C 45.90625 19 43 16.09375 43 12.5 C 43 8.90625 45.90625 6 49.5 6 C 53.09375 6 56 8.90625 56 12.5 Z M 56 12.5 " transform="matrix(0.375,0,0,0.375,0,0)"/>
<path style="fill-rule:nonzero;fill:rgb(28.627451%,78.823529%,55.686275%);fill-opacity:1;stroke-width:2;stroke-linecap:round;stroke-linejoin:round;stroke:rgb(0%,10.980392%,38.823529%);stroke-opacity:1;stroke-miterlimit:4;" d="M 25 39.5 C 25 34.802083 23.65625 31 22 31 C 20.34375 31 19 34.802083 19 39.5 C 19 44.197917 20.34375 48 22 48 C 23.65625 48 25 44.197917 25 39.5 Z M 25 39.5 " transform="matrix(0.375,0,0,0.375,0,0)"/>
<path style="fill:none;stroke-width:2;stroke-linecap:round;stroke-linejoin:round;stroke:rgb(0%,10.980392%,38.823529%);stroke-opacity:1;stroke-miterlimit:4;" d="M 22 52 L 22 44 " transform="matrix(0.375,0,0,0.375,0,0)"/>
<path style="fill-rule:nonzero;fill:rgb(28.627451%,78.823529%,55.686275%);fill-opacity:1;stroke-width:2;stroke-linecap:round;stroke-linejoin:round;stroke:rgb(0%,10.980392%,38.823529%);stroke-opacity:1;stroke-miterlimit:4;" d="M 19 44.5625 C 19 41.760417 18.197917 39.5 17.208333 39.5 C 16.21875 39.5 15.416667 41.760417 15.416667 44.5625 C 15.416667 47.354167 16.21875 49.625 17.208333 49.625 C 18.197917 49.625 19 47.354167 19 44.5625 Z M 19 44.5625 " transform="matrix(0.375,0,0,0.375,0,0)"/>
<path style="fill:none;stroke-width:2;stroke-linecap:round;stroke-linejoin:round;stroke:rgb(0%,10.980392%,38.823529%);stroke-opacity:1;stroke-miterlimit:4;" d="M 17 50 L 17 52 " transform="matrix(0.375,0,0,0.375,0,0)"/>
<path style="fill:none;stroke-width:2;stroke-linecap:round;stroke-linejoin:round;stroke:rgb(100%,100%,100%);stroke-opacity:1;stroke-miterlimit:4;" d="M 44 41 L 47 44 " transform="matrix(0.375,0,0,0.375,0,0)"/>
<path style="fill:none;stroke-width:2;stroke-linecap:round;stroke-linejoin:round;stroke:rgb(100%,100%,100%);stroke-opacity:1;stroke-miterlimit:4;" d="M 36 24 L 39 28 " transform="matrix(0.375,0,0,0.375,0,0)"/>
<path style=" stroke:none;fill-rule:nonzero;fill:rgb(100%,100%,100%);fill-opacity:1;" d="M 15.75 11.625 C 15.75 11.832031 15.582031 12 15.375 12 C 15.167969 12 15 11.832031 15 11.625 C 15 11.417969 15.167969 11.25 15.375 11.25 C 15.582031 11.25 15.75 11.417969 15.75 11.625 Z M 15.75 11.625 "/>
</g>
</svg>
