<?xml version="1.0" standalone="no"?>
<!DOCTYPE svg PUBLIC "-//W3C//DTD SVG 20010904//EN"
 "http://www.w3.org/TR/2001/REC-SVG-20010904/DTD/svg10.dtd">
<svg version="1.0" xmlns="http://www.w3.org/2000/svg"
 width="700.000000pt" height="700.000000pt" viewBox="0 0 700.000000 700.000000"
 preserveAspectRatio="xMidYMid meet">
<metadata>
Created by potrace 1.11, written by Peter Selinger 2001-2013
</metadata>
<g transform="translate(0.000000,700.000000) scale(0.100000,-0.100000)"
fill="#000000" stroke="none">
<path d="M5378 6455 c-2 -1 -25 -5 -53 -8 -342 -37 -620 -280 -706 -617 -40
-154 -27 -349 33 -500 96 -242 311 -428 573 -495 72 -19 233 -27 295 -15 25 4
59 11 75 13 17 3 55 14 85 25 292 103 498 350 546 655 11 72 6 208 -11 289
-29 140 -98 275 -197 382 -143 156 -330 249 -528 262 -41 3 -83 7 -92 8 -9 2
-18 3 -20 1z"/>
<path d="M2358 5892 c-35 -18 -45 -37 -690 -1327 l-230 -459 -37 40 c-20 22
-74 82 -121 133 -47 52 -96 106 -110 121 -14 15 -56 62 -94 103 -70 79 -91 92
-139 89 -60 -5 -98 -52 -110 -138 -3 -21 -13 -75 -21 -118 -9 -44 -19 -93 -22
-110 -3 -17 -9 -49 -14 -71 -5 -22 -12 -56 -15 -75 -3 -19 -10 -53 -15 -75 -5
-22 -11 -56 -14 -75 -6 -39 -12 -71 -22 -115 -4 -16 -8 -37 -9 -45 -1 -8 -7
-40 -13 -70 -6 -30 -14 -71 -17 -90 -3 -19 -12 -62 -20 -95 -7 -33 -16 -77
-19 -97 -3 -21 -10 -57 -15 -80 -6 -24 -12 -56 -15 -73 -4 -24 -27 -141 -62
-322 -2 -13 -6 -33 -8 -45 -2 -13 -25 -129 -51 -258 -60 -305 -115 -588 -121
-620 -2 -14 -11 -59 -19 -100 -9 -41 -17 -86 -20 -100 -3 -14 -7 -36 -10 -50
-2 -14 -7 -38 -10 -55 -3 -16 -7 -41 -10 -55 -4 -14 -15 -70 -25 -125 -10 -55
-23 -120 -29 -145 -18 -79 -14 -116 18 -152 l29 -33 3222 0 3222 0 29 33 c19
21 29 43 29 65 0 28 -88 284 -360 1042 -38 105 -114 318 -170 475 -56 157
-112 314 -125 350 -13 36 -103 288 -200 560 -242 680 -250 702 -273 724 -48
43 -120 34 -165 -20 -27 -33 -216 -272 -322 -409 -82 -106 -79 -102 -110 -140
-14 -16 -35 -45 -48 -62 -12 -18 -26 -33 -32 -33 -5 1 -59 68 -120 150 -90
123 -269 365 -355 480 -11 14 -51 68 -89 120 -39 52 -79 106 -90 120 -10 14
-87 117 -171 230 -156 212 -178 236 -223 244 -47 8 -80 -15 -170 -118 -48 -56
-101 -117 -118 -136 -17 -19 -42 -48 -56 -65 -150 -174 -202 -230 -207 -224
-1 2 -65 94 -141 204 -76 110 -157 227 -180 260 -23 33 -95 137 -160 230 -103
148 -273 393 -370 534 -57 82 -106 103 -167 73z"/>
</g>
</svg>
